<?xml version="1.0" encoding="utf-8"?>
<!-- Generator: Adobe Illustrator 21.1.0, SVG Export Plug-In . SVG Version: 6.00 Build 0)  -->
<svg version="1.1" id="Capa_1" xmlns="http://www.w3.org/2000/svg" xmlns:xlink="http://www.w3.org/1999/xlink" x="0px" y="0px"
	 viewBox="0 0 218.2 218.2" style="enable-background:new 0 0 218.2 218.2;" xml:space="preserve">
<style type="text/css">
	.st0{fill:#FBFBFB;}
</style>
<path class="st0" d="M29.8,73.8l-5.7-37.5c-0.5-3,0.9-5.9,3.5-7.5l22.7-14c1.3-0.8,2.7-1.1,4.1-1.1c0.1,0,0.2,0,0.4,0l48,0
	c4.1,0,7.5,3.4,7.5,7.5s-3.4,7.5-7.5,7.5H82.9l53.4,30l-25.7,15.1H29.8z M110.3,196.9c0-4.1-3.4-7.5-7.5-7.5H82.9l53.4-30
	l-25.7-15.1H29.8l-5.7,37.5c-0.5,3,0.9,5.9,3.5,7.5l22.7,14c1.3,0.8,2.7,1.1,4.1,1.1c0.1,0,0.2,0,0.4,0h48
	C106.9,204.4,110.3,201.1,110.3,196.9z M29.5,129.4l-9.5-12.8H7.5c-4.1,0-7.5-3.4-7.5-7.5c0-4.1,3.4-7.5,7.5-7.5h12.4l9.5-12.8h83.1
	c1.3,0,2.6-0.4,3.8-1l35-20.5l62.9,35.3c2.4,1.3,3.8,3.8,3.8,6.5c0,2.7-1.5,5.2-3.8,6.5l-62.9,35.3l-35-20.5c-1.2-0.7-2.5-1-3.8-1
	H29.5z M149.5,129.3c2.6,3.2,7.4,3.6,10.6,1c1.1-0.9,10.3-8.8,10.3-21.1c0-12.1-9.1-20.4-10.1-21.3c-3.1-2.7-7.9-2.4-10.6,0.7
	c-1.2,1.4-1.9,3.2-1.9,4.9c0,2.1,0.9,4.1,2.5,5.6c1.4,1.3,5,5.6,5,10.1c0,5.3-4.8,9.5-4.8,9.5C147.4,121.4,146.9,126.2,149.5,129.3z
	"/>
</svg>
