<?xml version="1.0" encoding="utf-8"?>
<!-- Generator: Adobe Illustrator 21.1.0, SVG Export Plug-In . SVG Version: 6.00 Build 0)  -->
<svg version="1.1" id="Capa_1" xmlns="http://www.w3.org/2000/svg" xmlns:xlink="http://www.w3.org/1999/xlink" x="0px" y="0px"
	 viewBox="0 0 218.2 218.2" style="enable-background:new 0 0 218.2 218.2;" xml:space="preserve">
<style type="text/css">
	.st0{fill:#FBFBFB;}
</style>
<path class="st0" d="M107.6,73.8L81.9,58.7l53.4-30h-19.9c-4.1,0-7.5-3.4-7.5-7.5s3.4-7.5,7.5-7.5h48c0.1,0,0.2,0,0.4,0
	c1.4,0,2.9,0.3,4.1,1.1l22.7,14c2.6,1.6,3.9,4.5,3.5,7.5l-5.7,37.5H107.6z M115.4,204.4h48c0.1,0,0.2,0,0.4,0c1.4,0,2.9-0.3,4.1-1.1
	l22.7-14c2.6-1.6,3.9-4.5,3.5-7.5l-5.7-37.5h-80.8l-25.7,15.1l53.4,30h-19.9c-4.1,0-7.5,3.4-7.5,7.5
	C107.9,201.1,111.2,204.4,115.4,204.4z M105.6,129.4c-1.3,0-2.6,0.4-3.8,1l-35,20.5L3.8,115.6c-2.4-1.3-3.8-3.8-3.8-6.5
	c0-2.7,1.5-5.2,3.8-6.5l62.9-35.3l35,20.5c1.2,0.7,2.5,1,3.8,1h83.1l9.5,12.8h12.4c4.1,0,7.5,3.4,7.5,7.5c0,4.1-3.4,7.5-7.5,7.5
	h-12.4l-9.5,12.8H105.6z M67.6,118.8c0,0-4.8-4.2-4.8-9.5c0-4.5,3.6-8.8,5-10.1c1.7-1.5,2.5-3.5,2.5-5.6c0-1.8-0.6-3.5-1.9-4.9
	c-2.7-3.1-7.5-3.4-10.6-0.7c-1,0.9-10.1,9.2-10.1,21.3c0,12.3,9.2,20.2,10.3,21.1c3.2,2.6,7.9,2.2,10.6-1
	C71.2,126.2,70.8,121.4,67.6,118.8z"/>
</svg>
